<svg xmlns="http://www.w3.org/2000/svg" viewBox="0 0 512 512" role="img" aria-label="視聴リスト">
  <defs>
    <linearGradient id="tile" gradientUnits="userSpaceOnUse" x1="0" y1="0" x2="512" y2="512">
      <stop offset="0" stop-color="#4b6ff0"/>
      <stop offset=".55" stop-color="#3b62d8"/>
      <stop offset="1" stop-color="#6a45e0"/>
    </linearGradient>
    <linearGradient id="scr" gradientUnits="userSpaceOnUse" x1="0" y1="86" x2="0" y2="296">
      <stop offset="0" stop-color="#ffffff"/>
      <stop offset="1" stop-color="#e8eefc"/>
    </linearGradient>
    <linearGradient id="star" gradientUnits="userSpaceOnUse" x1="0" y1="318" x2="0" y2="466">
      <stop offset="0" stop-color="#ffd76a"/>
      <stop offset="1" stop-color="#f5a623"/>
    </linearGradient>
    <clipPath id="tileClip"><rect width="512" height="512" rx="114"/></clipPath>
  </defs>
  <g clip-path="url(#tileClip)">
    <rect width="512" height="512" fill="url(#tile)"/>
    <rect x="222" y="292" width="40" height="36" rx="10" fill="#ffffff" opacity=".92"/>
    <rect x="176" y="324" width="132" height="28" rx="14" fill="#ffffff" opacity=".92"/>
    <rect x="78" y="86" width="326" height="210" rx="32" fill="url(#scr)"/>
    <polygon points="204.04,143 292.04,191 204.04,239" fill="#3b62d8" stroke="#3b62d8" stroke-width="22" stroke-linejoin="round"/>
    <circle cx="392" cy="392" r="87" fill="url(#tile)"/>
    <polygon points="392,318 409.18,368.35 462.38,369.13 419.8,401.03 435.5,451.87 392,421.23 348.5,451.87 364.2,401.03 321.62,369.13 374.82,368.35" fill="url(#star)"/>
  </g>
</svg>
